<svg width="9" height="9" viewBox="0 0 9 9" fill="none" xmlns="http://www.w3.org/2000/svg">
<g clip-path="url(#clip0_152_43)">
<path d="M5.36693 4.4981L2.00005 7.86512C1.90734 7.95761 1.85634 8.08127 1.85634 8.21312C1.85634 8.34505 1.90734 8.46863 2.00005 8.56127L2.29507 8.85615C2.38763 8.94893 2.51137 9 2.64322 9C2.77507 9 2.89866 8.94893 2.99129 8.85615L7.0001 4.84742C7.0931 4.75449 7.14403 4.63032 7.14366 4.49832C7.14403 4.36573 7.09317 4.24171 7.0001 4.14871L2.99503 0.143855C2.90239 0.0510746 2.77881 5.72087e-07 2.64688 5.60553e-07C2.51503 5.49026e-07 2.39144 0.0510746 2.29873 0.143855L2.00378 0.438733C1.81186 0.63066 1.81186 0.943099 2.00378 1.13495L5.36693 4.4981Z" fill="#8D8D8D"/>
</g>
<defs>
<clipPath id="clip0_152_43">
<rect width="9" height="9" fill="white" transform="translate(9 9) rotate(-180)"/>
</clipPath>
</defs>
</svg>
