<svg width="246" height="39" viewBox="0 0 246 39" fill="none" xmlns="http://www.w3.org/2000/svg">
<path d="M194.802 1.89088C189.524 3.16133 185.499 7.35679 183.948 13.2068C183.143 16.2204 183.054 22.0113 183.799 24.8181C185.081 29.8113 188.153 33.8295 192.178 35.7795C194.206 36.7545 194.325 36.7841 198.142 36.7841C201.959 36.7841 202.048 36.7545 204.105 35.7795C208.041 33.8886 211.053 29.9886 212.335 25.2022C213.111 22.3068 213.17 17.3431 212.484 14.1818C210.576 5.31815 202.883 -0.0295753 194.802 1.89088ZM201.094 3.98861C205.537 5.14088 208.727 8.65679 210.129 13.975C210.725 16.2795 210.815 21.9818 210.248 24.2272C209.592 26.9454 207.892 30.1068 206.223 31.7613C204.344 33.5931 202.376 34.5681 199.603 34.9522C195.846 35.5136 191.94 34.0659 189.465 31.2C187.944 29.4272 186.364 26.0295 185.887 23.4C183.68 10.9909 191.135 1.41815 201.094 3.98861Z" fill="black"/>
<path d="M1.49091 19.2045V36.0454H11.7185H21.9462L21.8269 35.0113L21.7076 33.9772L12.7025 33.9181L3.72727 33.8295V27.034V20.2386L11.2713 20.15L18.7854 20.0909V19.2045V18.3181L11.2713 18.259L3.72727 18.1704L3.63781 11.2863L3.57818 4.43177H12.2255H20.8727L21.1709 3.66359C21.3498 3.24995 21.4691 2.77723 21.4691 2.6295C21.4691 2.48177 17.4735 2.36359 11.48 2.36359H1.49091V19.2045Z" fill="black"/>
<path d="M28.3273 19.2045V36.0454H29.3709H30.4145V20.6818C30.4145 12.2318 30.504 5.31814 30.6531 5.31814C30.7724 5.31814 35.3644 12.2318 40.8211 20.6818L50.7804 36.0454H52.2415H53.6727V19.2045V2.36359H52.48H51.2873V17.4909C51.2873 30.4022 51.2276 32.559 50.8698 32.2045C50.6611 31.9681 48.3353 28.4227 45.7113 24.375C43.1171 20.2977 38.8531 13.709 36.2589 9.66132L31.5178 2.36359H29.9076H28.3273V19.2045Z" fill="black"/>
<path d="M62.6182 19.2045V36.0454H68.8204C72.7265 36.0159 75.8575 35.8681 77.3185 35.6022C85.0713 34.2431 89.4247 28.5409 89.4545 19.7363C89.4545 12.8818 86.8902 7.35677 82.328 4.43177C79.704 2.77723 77.1396 2.36359 69.4167 2.36359H62.6182V19.2045ZM78.9884 5.17041C82.0895 6.2045 84.624 8.86359 86.0553 12.5568C86.7113 14.2704 86.8902 15.2454 87.0095 18.259C87.2182 24.05 86.2938 27.1818 83.4313 30.284C80.8073 33.15 77.7658 33.9772 69.864 33.9772H65.0036V19.2045V4.46132L69.4167 4.37268C74.3069 4.28404 76.9905 4.49086 78.9884 5.17041Z" fill="black"/>
<path d="M96.0146 19.2045V36.0454H106.153H116.291V35.0113V33.9772H107.196H98.1018V27.034V20.0909H105.556H113.011V19.1159V18.1704H105.646H98.2509L98.1615 11.2863L98.1018 4.43177H106.749C111.49 4.43177 115.396 4.40223 115.396 4.34314C115.396 4.31359 115.516 3.84086 115.665 3.30904L115.963 2.36359H105.974H96.0146V19.2045Z" fill="black"/>
<path d="M135.583 2.57041C135.434 2.80677 134.689 4.5795 130.067 15.659C128.606 19.1454 126.131 25.084 124.521 28.8659C122.94 32.6181 121.658 35.7795 121.658 35.8977C121.658 35.9863 122.135 36.0454 122.732 35.9863L123.805 35.8977L125.684 31.4659L127.562 27.034L134.719 26.9454L141.875 26.8863L142.203 25.9409C142.382 25.4386 142.531 24.9954 142.531 24.9363C142.531 24.8772 139.4 24.7886 135.553 24.759L128.576 24.6704L132.601 15.0681C134.808 9.7795 136.716 5.34768 136.836 5.2295C136.955 5.11132 138.118 7.5045 139.37 10.5477C140.652 13.5909 142.024 16.8409 142.382 17.7272C142.769 18.6136 143.783 21.0068 144.618 23.0454C145.483 25.084 146.825 28.275 147.6 30.1363C148.405 31.9977 149.27 34.0954 149.538 34.775C150.015 35.9568 150.135 36.0454 151.208 36.0454H152.401L151.983 35.2181C151.745 34.775 150.82 32.6181 149.896 30.4318C149.001 28.2454 146.944 23.3113 145.334 19.5C143.753 15.6886 141.607 10.4886 140.563 7.97723C139.519 5.46586 138.535 3.19086 138.386 2.9545C138.118 2.48177 135.822 2.15677 135.583 2.57041Z" fill="black"/>
<path d="M150.582 2.62951C150.582 2.77723 150.82 3.45678 151.148 4.16587C152.132 6.49996 163.284 33.1795 164.089 35.2181C164.388 35.9568 164.596 36.0454 165.789 36.0454H167.161L168.234 33.4454C168.831 32.0272 170.53 28.009 171.991 24.5227C173.452 21.0363 176.076 14.7727 177.836 10.6068C179.565 6.44087 180.996 2.89541 180.996 2.68859C180.996 2.51132 180.549 2.36359 180.012 2.36359H179.028L175.331 11.1386C171.574 20.15 170.56 22.5136 167.876 28.925C167.041 30.9636 166.207 32.8545 166.028 33.1795C165.759 33.6818 165.401 33.0318 163.642 28.7772C162.509 26.0295 160.929 22.2477 160.124 20.3863C159.348 18.525 158.036 15.3931 157.231 13.4431C152.192 1.41814 152.669 2.36359 151.566 2.36359C151.029 2.36359 150.582 2.48178 150.582 2.62951Z" fill="black"/>
<path d="M219.164 19.2045V36.0454H220.356H221.549V27.9204V19.7954H227.602H233.655L237.83 27.9204L241.975 36.0454H243.108C243.704 36.0454 244.211 35.9863 244.211 35.8977C244.211 35.8386 242.332 32.1159 240.007 27.625C236.369 20.534 235.892 19.4704 236.369 19.3227C240.752 17.875 243.108 14.95 243.108 10.9318C243.108 8.59768 242.362 6.76586 240.812 5.2295C238.307 2.71814 236.488 2.36359 226.767 2.36359H219.164V19.2045ZM236.309 4.75677C238.844 5.61359 240.931 8.56814 240.931 11.2568C240.931 12.8522 239.649 15.2159 238.337 16.0727C235.951 17.6386 234.997 17.8159 228.049 17.9636L221.549 18.0818V11.0795V4.07723L228.348 4.22495C233.059 4.31359 235.474 4.46132 236.309 4.75677Z" fill="black"/>
</svg>
