<svg width="193" height="47" viewBox="0 0 193 47" fill="none" xmlns="http://www.w3.org/2000/svg">
<path d="M9.52 14.152V24.232C9.52 25.24 9.768 26.016 10.264 26.56C10.76 27.104 11.488 27.376 12.448 27.376C13.408 27.376 14.144 27.104 14.656 26.56C15.168 26.016 15.424 25.24 15.424 24.232V14.152H19.528V24.208C19.528 25.712 19.208 26.984 18.568 28.024C17.928 29.064 17.064 29.848 15.976 30.376C14.904 30.904 13.704 31.168 12.376 31.168C11.048 31.168 9.856 30.912 8.8 30.4C7.76 29.872 6.936 29.088 6.328 28.048C5.72 26.992 5.416 25.712 5.416 24.208V14.152H9.52ZM26.5139 19.504C26.9139 18.88 27.4659 18.376 28.1699 17.992C28.8739 17.608 29.6979 17.416 30.6419 17.416C31.7459 17.416 32.7459 17.696 33.6419 18.256C34.5379 18.816 35.2419 19.616 35.7539 20.656C36.2819 21.696 36.5459 22.904 36.5459 24.28C36.5459 25.656 36.2819 26.872 35.7539 27.928C35.2419 28.968 34.5379 29.776 33.6419 30.352C32.7459 30.912 31.7459 31.192 30.6419 31.192C29.7139 31.192 28.8899 31 28.1699 30.616C27.4659 30.232 26.9139 29.736 26.5139 29.128V37.384H22.4099V17.608H26.5139V19.504ZM32.3699 24.28C32.3699 23.256 32.0819 22.456 31.5059 21.88C30.9459 21.288 30.2499 20.992 29.4179 20.992C28.6019 20.992 27.9059 21.288 27.3299 21.88C26.7699 22.472 26.4899 23.28 26.4899 24.304C26.4899 25.328 26.7699 26.136 27.3299 26.728C27.9059 27.32 28.6019 27.616 29.4179 27.616C30.2339 27.616 30.9299 27.32 31.5059 26.728C32.0819 26.12 32.3699 25.304 32.3699 24.28ZM37.8829 24.28C37.8829 22.904 38.1389 21.696 38.6509 20.656C39.1789 19.616 39.8909 18.816 40.7869 18.256C41.6829 17.696 42.6829 17.416 43.7869 17.416C44.7309 17.416 45.5549 17.608 46.2589 17.992C46.9789 18.376 47.5309 18.88 47.9149 19.504V17.608H52.0189V31H47.9149V29.104C47.5149 29.728 46.9549 30.232 46.2349 30.616C45.5309 31 44.7069 31.192 43.7629 31.192C42.6749 31.192 41.6829 30.912 40.7869 30.352C39.8909 29.776 39.1789 28.968 38.6509 27.928C38.1389 26.872 37.8829 25.656 37.8829 24.28ZM47.9149 24.304C47.9149 23.28 47.6269 22.472 47.0509 21.88C46.4909 21.288 45.8029 20.992 44.9869 20.992C44.1709 20.992 43.4749 21.288 42.8989 21.88C42.3389 22.456 42.0589 23.256 42.0589 24.28C42.0589 25.304 42.3389 26.12 42.8989 26.728C43.4749 27.32 44.1709 27.616 44.9869 27.616C45.8029 27.616 46.4909 27.32 47.0509 26.728C47.6269 26.136 47.9149 25.328 47.9149 24.304ZM72.076 17.464C73.74 17.464 75.06 17.968 76.036 18.976C77.028 19.984 77.524 21.384 77.524 23.176V31H73.444V23.728C73.444 22.864 73.212 22.2 72.748 21.736C72.3 21.256 71.676 21.016 70.876 21.016C70.076 21.016 69.444 21.256 68.98 21.736C68.532 22.2 68.308 22.864 68.308 23.728V31H64.228V23.728C64.228 22.864 63.996 22.2 63.532 21.736C63.084 21.256 62.46 21.016 61.66 21.016C60.86 21.016 60.228 21.256 59.764 21.736C59.316 22.2 59.092 22.864 59.092 23.728V31H54.988V17.608H59.092V19.288C59.508 18.728 60.052 18.288 60.724 17.968C61.396 17.632 62.156 17.464 63.004 17.464C64.012 17.464 64.908 17.68 65.692 18.112C66.492 18.544 67.116 19.16 67.564 19.96C68.028 19.224 68.66 18.624 69.46 18.16C70.26 17.696 71.132 17.464 72.076 17.464ZM79.5783 24.28C79.5783 22.904 79.8343 21.696 80.3463 20.656C80.8743 19.616 81.5863 18.816 82.4823 18.256C83.3783 17.696 84.3783 17.416 85.4823 17.416C86.4263 17.416 87.2503 17.608 87.9543 17.992C88.6743 18.376 89.2263 18.88 89.6103 19.504V17.608H93.7143V31H89.6103V29.104C89.2103 29.728 88.6503 30.232 87.9303 30.616C87.2263 31 86.4023 31.192 85.4583 31.192C84.3703 31.192 83.3783 30.912 82.4823 30.352C81.5863 29.776 80.8743 28.968 80.3463 27.928C79.8343 26.872 79.5783 25.656 79.5783 24.28ZM89.6103 24.304C89.6103 23.28 89.3223 22.472 88.7463 21.88C88.1863 21.288 87.4983 20.992 86.6823 20.992C85.8663 20.992 85.1703 21.288 84.5943 21.88C84.0343 22.456 83.7543 23.256 83.7543 24.28C83.7543 25.304 84.0343 26.12 84.5943 26.728C85.1703 27.32 85.8663 27.616 86.6823 27.616C87.4983 27.616 88.1863 27.32 88.7463 26.728C89.3223 26.136 89.6103 25.328 89.6103 24.304ZM104.843 17.464C106.411 17.464 107.659 17.976 108.587 19C109.531 20.008 110.003 21.4 110.003 23.176V31H105.923V23.728C105.923 22.832 105.691 22.136 105.227 21.64C104.763 21.144 104.139 20.896 103.355 20.896C102.571 20.896 101.947 21.144 101.483 21.64C101.019 22.136 100.787 22.832 100.787 23.728V31H96.6833V17.608H100.787V19.384C101.203 18.792 101.763 18.328 102.467 17.992C103.171 17.64 103.963 17.464 104.843 17.464ZM126.535 17.608L118.135 37.36H113.719L116.791 30.544L111.343 17.608H115.927L119.023 25.984L122.095 17.608H126.535ZM141.243 17.608V31H137.139V29.176C136.723 29.768 136.155 30.248 135.435 30.616C134.731 30.968 133.947 31.144 133.083 31.144C132.059 31.144 131.155 30.92 130.371 30.472C129.587 30.008 128.979 29.344 128.547 28.48C128.115 27.616 127.899 26.6 127.899 25.432V17.608H131.979V24.88C131.979 25.776 132.211 26.472 132.675 26.968C133.139 27.464 133.763 27.712 134.547 27.712C135.347 27.712 135.979 27.464 136.443 26.968C136.907 26.472 137.139 25.776 137.139 24.88V17.608H141.243ZM146.111 31.192C145.391 31.192 144.799 30.984 144.335 30.568C143.887 30.136 143.663 29.608 143.663 28.984C143.663 28.344 143.887 27.808 144.335 27.376C144.799 26.944 145.391 26.728 146.111 26.728C146.815 26.728 147.391 26.944 147.839 27.376C148.303 27.808 148.535 28.344 148.535 28.984C148.535 29.608 148.303 30.136 147.839 30.568C147.391 30.984 146.815 31.192 146.111 31.192ZM166.685 17.752C168.125 17.752 169.309 18.224 170.237 19.168C171.165 20.112 171.629 21.536 171.629 23.44V31H171.173V23.392C171.173 21.696 170.773 20.408 169.973 19.528C169.173 18.632 168.077 18.184 166.685 18.184C165.229 18.184 164.053 18.704 163.157 19.744C162.261 20.768 161.813 22.264 161.813 24.232V31H161.357V23.392C161.357 21.696 160.957 20.408 160.157 19.528C159.357 18.632 158.261 18.184 156.869 18.184C155.397 18.184 154.213 18.704 153.317 19.744C152.437 20.768 151.997 22.264 151.997 24.232V31H151.517V18.04H151.997V21.472C152.317 20.224 152.909 19.296 153.773 18.688C154.653 18.064 155.685 17.752 156.869 17.752C158.085 17.752 159.125 18.096 159.989 18.784C160.869 19.456 161.429 20.48 161.669 21.856C161.957 20.48 162.549 19.456 163.445 18.784C164.357 18.096 165.437 17.752 166.685 17.752ZM181.227 30.736C182.683 30.736 183.907 30.368 184.899 29.632C185.891 28.896 186.491 27.888 186.699 26.608H187.179C186.955 27.968 186.315 29.072 185.259 29.92C184.219 30.752 182.875 31.168 181.227 31.168C180.027 31.168 178.955 30.904 178.011 30.376C177.067 29.848 176.323 29.08 175.779 28.072C175.251 27.064 174.987 25.88 174.987 24.52C174.987 23.16 175.251 21.976 175.779 20.968C176.323 19.96 177.067 19.192 178.011 18.664C178.955 18.136 180.027 17.872 181.227 17.872C182.491 17.872 183.571 18.144 184.467 18.688C185.363 19.216 186.035 19.904 186.483 20.752C186.947 21.6 187.179 22.496 187.179 23.44C187.179 24.016 187.171 24.448 187.155 24.736H175.467C175.483 26.064 175.755 27.176 176.283 28.072C176.827 28.968 177.531 29.64 178.395 30.088C179.259 30.52 180.203 30.736 181.227 30.736ZM181.227 18.304C180.203 18.304 179.259 18.528 178.395 18.976C177.531 19.408 176.827 20.072 176.283 20.968C175.755 21.864 175.483 22.976 175.467 24.304H186.747C186.827 22.976 186.611 21.864 186.099 20.968C185.603 20.072 184.915 19.408 184.035 18.976C183.171 18.528 182.235 18.304 181.227 18.304Z" fill="black"/>
</svg>
